<?xml version="1.0" encoding="UTF-8" standalone="no"?>
<svg width="1403px" height="482px" viewBox="0 0 1403 482" version="1.1" xmlns="http://www.w3.org/2000/svg" xmlns:xlink="http://www.w3.org/1999/xlink">
    <!-- Generator: Sketch 40.3 (33839) - http://www.bohemiancoding.com/sketch -->
    <title>Slice 1</title>
    <desc>Created with Sketch.</desc>
    <defs></defs>
    <g id="Page-1" stroke="none" stroke-width="1" fill="none" fill-rule="evenodd">
        <g id="pinguinradiocomlogo-breed-transpa">
            <polygon id="Fill-1" fill="#ED1F24" points="0 482 481.89 482 481.89 0.11 0 0.11"></polygon>
            <path d="M241.951,423.891 C343.711,423.891 426.197,341.392 426.197,239.632 C426.197,137.866 343.711,55.386 241.951,55.386 C140.185,55.386 57.693,137.866 57.693,239.632 C57.693,341.392 140.185,423.891 241.951,423.891" id="Fill-2" fill="#FFFFFF"></path>
            <path d="M463.946,174.366 C441.772,168.46 433.69,163.557 425.636,173.954 C414.784,174.335 377.802,157.631 316.997,190.077 C333.512,186.84 357.045,185.219 376.137,179.904 C386.28,177.098 394.906,170.274 401.1,179.904 C386.118,184.339 321.226,215.494 314.227,252.001 C318.275,264.275 306.561,275.291 298.515,281.56 C300.518,287.809 300.699,294.501 298.515,300.94 C289.889,301.669 289.01,295.207 285.573,289.892 C280.938,268.211 243.228,237.787 205.162,260.303 C196.536,254.148 186.294,249.575 186.687,234.437 C198.046,230.694 197.035,214.79 194.072,203.937 C187.76,206.244 187.224,202.097 181.136,202.097 C174.519,204.66 156.955,230.233 151.559,237.213 C144.829,236.545 145.94,228.036 146.02,220.565 C157.934,194.493 197.472,145.674 226.431,139.194 C246.128,118.605 296.482,129.308 305.907,139.194 C315.873,139.438 322.466,142.98 329.003,146.628 C383.61,156.147 460.253,146.748 463.946,174.366" id="Fill-3" fill="#1A1918"></path>
            <path d="M151.117,399.982 C108.395,376.952 85.614,337.195 85.614,337.195 C106.085,292.585 136.552,259.679 169.123,263.078 C172.129,267.664 174.057,268.405 174.668,275.989 C170.864,278.996 131.027,281.107 151.117,399.982" id="Fill-4" fill="#1A1919"></path>
            <path d="M207.782,129.002 L237.328,136.78 C237.328,136.78 251.187,86.645 279.61,129.065 C279.61,129.065 291.081,130.818 297.106,134.204 C297.106,134.204 255.659,49.483 207.782,129.002" id="Fill-5" fill="#ED1F24"></path>
            <path d="M260.293,161.817 C260.293,139.861 240.901,122.054 216.975,122.054 C193.049,122.054 173.657,139.861 173.657,161.817 C173.657,183.778 193.049,201.585 216.975,201.585 C240.901,201.585 260.293,183.778 260.293,161.817 Z" id="Fill-6" fill="#ED1F24"></path>
            <path d="M590.644,343.459 C604.7,337.169 611.726,325.786 611.726,309.318 C611.726,293.909 606.487,282.035 596.018,273.674 C587.793,267.154 575.383,263.886 558.796,263.886 L521.127,263.886 L521.127,400.088 L557.74,400.088 L557.74,352.452 L557.471,343.459 C558.127,345.343 558.662,346.958 559.109,348.305 C559.548,349.66 559.853,350.755 560.032,351.581 L578.197,400.088 L617.987,400.088 L590.644,343.459 L590.644,343.459 Z M557.917,292.562 L559.236,292.562 C569.889,292.562 575.204,297.646 575.204,307.823 C575.204,312.825 573.789,316.935 570.968,320.174 C568.147,323.404 564.618,325.02 560.39,325.02 L557.917,325.02 L557.917,292.562 L557.917,292.562 Z M699.414,263.886 L654.428,263.886 L621.687,400.088 L659.714,400.088 L662.721,382.803 L687.497,382.803 L690.236,400.088 L728.262,400.088 L699.414,263.886 L699.414,263.886 Z M667.657,354.135 L671.364,332.784 L673.918,316.287 C673.977,315.99 674.095,315.141 674.274,313.726 C674.454,312.32 674.737,309.787 675.154,306.14 C675.391,304.323 675.616,302.642 675.816,301.114 C676.016,299.589 676.182,298.196 676.299,296.968 L677.447,309.848 C677.744,312.49 677.983,314.686 678.161,316.421 C678.332,318.155 678.474,319.525 678.593,320.523 C679.71,329.464 680.327,334.577 680.454,335.873 C680.624,337.399 680.737,338.196 680.795,338.255 L683.178,354.135 L667.657,354.135 L667.657,354.135 Z M773.338,400.088 C792.33,400.088 806.623,394.863 816.21,384.397 C827.452,372.099 833.065,354.663 833.065,332.076 C833.065,309.141 826.418,291.295 813.122,278.536 C803.004,268.769 788.868,263.886 770.695,263.886 L738.938,263.886 L738.938,400.088 L773.338,400.088 L773.338,400.088 Z M775.727,298.114 L776.868,298.114 C782.57,298.114 787.103,301.286 790.454,307.645 C793.803,313.935 795.487,322.527 795.487,333.402 C795.487,355.46 788.897,366.805 775.727,367.46 L775.727,298.114 L775.727,298.114 Z M848.758,400.097 L885.548,400.097 L885.548,263.886 L848.758,263.886 L848.758,400.097 Z M990.799,282.459 C981.508,270.079 969.002,263.886 953.308,263.886 C940.481,263.886 929.388,268.464 920.045,277.606 C907.458,289.919 901.167,307.726 901.167,331.012 C901.167,355.318 907.198,373.55 919.256,385.699 C928.831,395.295 940.325,400.088 953.74,400.088 C968.853,400.088 981.121,393.851 990.53,381.352 C1000,368.807 1004.73,352.505 1004.73,332.457 C1004.73,311.499 1000.09,294.84 990.799,282.459 L990.799,282.459 Z M962.823,358.289 C960.478,364.4 957.121,367.46 952.772,367.46 C948.544,367.46 945.231,364.356 942.84,358.154 C940.466,351.962 939.283,343.235 939.283,331.994 C939.283,320.574 940.534,311.924 943.065,306.043 C945.656,299.701 949.125,296.53 953.48,296.53 C962.183,296.53 966.53,308.605 966.53,332.77 C966.53,343.668 965.294,352.17 962.823,358.289 L962.823,358.289 Z M1114.14,367.46 C1110.43,367.46 1107.14,366.664 1104.26,365.093 C1101.38,363.516 1098.95,361.244 1096.98,358.274 C1095.01,355.295 1093.5,351.655 1092.43,347.338 C1091.37,343.027 1090.85,338.129 1090.85,332.649 C1090.85,321.333 1092.97,312.469 1097.19,306.059 C1101.44,299.708 1107.32,296.53 1114.85,296.53 C1120.61,296.53 1126.23,299.263 1131.69,304.732 L1131.69,267.102 C1125.51,264.958 1119.45,263.886 1113.52,263.886 C1095.23,263.886 1080.62,270.131 1069.68,282.624 C1058.74,295.182 1053.27,311.814 1053.27,332.545 C1053.27,354.692 1059.09,371.816 1070.74,383.905 C1081.15,394.7 1093.96,400.088 1109.19,400.088 C1115.67,400.088 1122.98,398.584 1131.17,395.548 L1133.28,358.631 C1126.87,364.512 1120.49,367.46 1114.14,367.46 L1114.14,367.46 Z M1233.85,282.459 C1224.55,270.079 1212.06,263.886 1196.35,263.886 C1183.54,263.886 1172.44,268.464 1163.1,277.606 C1150.51,289.919 1144.21,307.726 1144.21,331.012 C1144.21,355.318 1150.24,373.55 1162.3,385.699 C1171.89,395.295 1183.39,400.088 1196.8,400.088 C1211.91,400.088 1224.18,393.851 1233.59,381.352 C1243.05,368.807 1247.78,352.505 1247.78,332.457 C1247.78,311.499 1243.14,294.84 1233.85,282.459 L1233.85,282.459 Z M1205.88,358.289 C1203.53,364.4 1200.18,367.46 1195.83,367.46 C1191.59,367.46 1188.29,364.356 1185.9,358.154 C1183.52,351.962 1182.33,343.235 1182.33,331.994 C1182.33,320.574 1183.6,311.924 1186.13,306.043 C1188.7,299.701 1192.19,296.53 1196.53,296.53 C1205.23,296.53 1209.59,308.605 1209.59,332.77 C1209.59,343.668 1208.36,352.17 1205.88,358.289 L1205.88,358.289 Z M1389.2,263.886 L1344.74,263.886 L1335.58,313.205 C1334.26,320.024 1333.21,327.759 1332.47,336.402 C1332.06,331.22 1331.61,326.434 1331.11,322.019 C1330.61,317.612 1330.03,313.524 1329.39,309.759 L1321.72,263.886 L1275.94,263.886 L1260.05,400.088 L1299.22,400.088 L1302.48,338.345 L1303.36,313.205 C1303.77,317.195 1304.03,319.853 1304.16,321.14 C1305.16,329.732 1305.95,335.783 1306.53,339.313 L1316.42,400.088 L1346.99,400.088 L1359.02,339.402 C1359.82,335.337 1360.49,331.153 1361.04,326.836 C1361.59,322.511 1362.08,317.969 1362.51,313.205 L1363.71,337.996 L1365.21,400.088 L1402.43,400.088 L1389.2,263.886 L1389.2,263.886 Z" id="Fill-7" fill="#FFFFFF"></path>
            <path d="M573.352,177.976 L580.995,177.976 C599.347,177.976 613.423,174.329 623.22,167.033 C637.573,156.216 644.75,139.794 644.75,117.751 C644.75,97.524 638.005,81.719 624.516,70.352 C613.066,60.711 595.505,55.88 571.823,55.88 L524.305,55.88 L524.305,237.487 L573.352,237.487 L573.352,177.976 L573.352,177.976 Z M573.352,98.105 L576.759,98.105 C582.097,98.105 586.489,100.115 589.945,104.106 C593.383,108.035 595.111,113.128 595.111,119.397 C595.111,125.746 593.346,130.748 589.817,134.396 C586.289,138.044 581.545,139.868 575.59,139.868 L573.352,139.749 L573.352,98.105 L573.352,98.105 Z M661.924,237.487 L710.975,237.487 L710.975,55.88 L661.924,55.88 L661.924,237.487 Z M783.664,237.487 L783.664,191.145 C783.664,184.014 783.209,175.706 782.301,166.214 C781.4,156.73 779.972,145.593 778.02,132.811 C779.681,138.454 781.609,144.395 783.812,150.633 C786.016,156.857 788.488,163.542 791.235,170.681 L817.417,237.487 L864.704,237.487 L864.704,55.88 L817.417,55.88 L817.417,96.698 C817.417,104.306 817.886,113.716 818.832,124.927 C819.77,136.138 821.14,149.628 822.948,165.387 L817.886,149.397 C815.854,143.039 813.986,137.433 812.295,132.572 C810.614,127.711 809.11,123.401 807.768,119.634 L783.195,55.88 L736.377,55.88 L736.377,237.487 L783.664,237.487 L783.664,237.487 Z M954.916,170.681 L973.037,170.681 C973.037,174.217 972.62,177.425 971.8,180.299 C970.974,183.179 969.834,185.622 968.391,187.631 C966.932,189.642 965.146,191.206 963.038,192.307 C960.917,193.417 958.565,193.967 955.982,193.967 C949.466,193.967 944.732,190.625 941.747,183.924 C938.762,177.217 937.274,166.467 937.274,151.661 C937.274,116.82 944.017,99.407 957.506,99.407 C961.348,99.407 964.542,101.075 967.094,104.403 C969.64,107.738 971.271,112.264 971.972,117.989 L1019.5,100.576 C1006.56,70.776 985.737,55.88 957.038,55.88 C935.397,55.88 918.334,64.061 905.872,80.416 C893.402,96.773 887.164,119.15 887.164,147.536 C887.164,175.549 893.366,197.593 905.752,213.643 C918.222,229.536 935.397,237.487 957.269,237.487 C979.542,237.487 996.359,229.35 1007.73,213.054 C1018.16,198.136 1023.38,173.704 1023.38,139.764 L1023.38,132.462 L954.916,132.462 L954.916,170.681 L954.916,170.681 Z M1118.41,172.453 C1118.41,180.567 1117.52,186.217 1115.7,189.411 C1113.91,192.448 1110.65,193.967 1105.95,193.967 C1101.39,193.967 1098.16,192.337 1096.24,189.061 C1094.32,185.786 1093.37,180.217 1093.37,172.341 L1093.37,55.88 L1044.31,55.88 L1044.31,175.296 C1044.31,198.181 1051.53,214.834 1065.96,225.241 C1077.32,233.407 1091.4,237.487 1108.18,237.487 C1123,237.487 1135.59,233.796 1145.94,226.395 C1153.62,220.849 1159.12,214.64 1162.41,207.784 C1165.77,201.233 1167.45,192.679 1167.45,182.123 L1167.45,55.88 L1118.41,55.88 L1118.41,172.453 L1118.41,172.453 Z M1192.87,237.487 L1241.92,237.487 L1241.92,55.88 L1192.87,55.88 L1192.87,237.487 Z M1314.61,237.487 L1314.61,191.145 C1314.61,184.014 1314.16,175.706 1313.25,166.214 C1312.35,156.73 1310.93,145.593 1308.96,132.811 C1310.63,138.454 1312.56,144.395 1314.77,150.633 C1316.97,156.857 1319.43,163.542 1322.18,170.681 L1348.36,237.487 L1395.65,237.487 L1395.65,55.88 L1348.36,55.88 L1348.36,96.698 C1348.36,104.306 1348.83,113.716 1349.77,124.927 C1350.72,136.138 1352.09,149.628 1353.9,165.387 L1348.83,149.397 C1346.79,143.039 1344.93,137.433 1343.25,132.572 C1341.57,127.711 1340.06,123.401 1338.73,119.634 L1314.14,55.88 L1267.32,55.88 L1267.32,237.487 L1314.61,237.487 L1314.61,237.487 Z" id="Fill-8" fill="#FFFFFF"></path>
            <path d="M1029.42,458.231 C1051.32,458.231 1069.08,440.468 1069.08,418.566 C1069.08,396.658 1051.32,378.895 1029.42,378.895 C1007.5,378.895 989.755,396.658 989.755,418.566 C989.755,440.468 1007.5,458.231 1029.42,458.231" id="Fill-9" fill="#ED1F24"></path>
        </g>
    </g>
</svg>